<svg enable-background="new 0 0 512 512" viewBox="0 0 512 512" xmlns="http://www.w3.org/2000/svg"><path d="m498.629 264.06-29.251-22.649-37.291-76.419c-8.131-16.662-25.048-27.231-43.588-27.231h-188.547c-16.079 0-30.919 8.636-38.862 22.616l-45.143 79.451c-44.091 1.191-86.09 29.911-86.09 29.911-16.017 7.14-17.251 27.918-17.251 45.455 0 4.287.663 7.763-3.624 7.763-4.287 0-7.763 3.476-7.763 7.763v27.724c0 4.287 3.475 7.763 7.763 7.763h469.044c18.586 0 33.652-15.067 33.652-33.652v-41.887c0-10.411-4.818-20.235-13.049-26.608z" fill="#00b1ff"/><path d="m54.96 357.654c0-39.004 31.619-70.623 70.623-70.623s70.623 31.619 70.623 70.623v8.553h-141.246zm258.651 8.553h141.246v-8.553c0-39.004-31.619-70.623-70.623-70.623s-70.623 31.619-70.623 70.623z" fill="#0074a8"/><path d="m184.148 359.207c0 31.556-25.581 57.137-57.137 57.137s-57.137-25.581-57.137-57.137 25.581-57.137 57.137-57.137 57.137 25.581 57.137 57.137zm201.514-57.137c-31.556 0-57.137 25.581-57.137 57.137s25.581 57.137 57.137 57.137 57.137-25.581 57.137-57.137-25.581-57.137-57.137-57.137z" fill="#2b3b47"/><path d="m164.461 359.207c0 20.683-16.767 37.45-37.45 37.45s-37.45-16.767-37.45-37.45 16.767-37.45 37.45-37.45 37.45 16.768 37.45 37.45zm221.201-37.449c-20.683 0-37.45 16.767-37.45 37.45s16.767 37.45 37.45 37.45 37.45-16.767 37.45-37.45-16.767-37.45-37.45-37.45z" fill="#9ba5a8"/><path d="m164.745 232.018 260.328.731c5.331.015 8.829-5.567 6.491-10.358l-20.564-42.138c-5.317-10.896-16.586-17.936-28.71-17.936h-173.915c-10.124 0-19.468 5.438-24.469 14.24l-25.401 44.705c-2.723 4.791.728 10.741 6.24 10.756z" fill="#fff"/><path d="m306.63 145.063h27.936v101.59h-27.936z" fill="#00b1ff"/><path d="m140.13 359.207c0 7.245-5.873 13.118-13.118 13.118s-13.118-5.873-13.118-13.118 5.873-13.118 13.118-13.118 13.118 5.873 13.118 13.118zm245.532-13.118c-7.245 0-13.118 5.873-13.118 13.118s5.873 13.118 13.118 13.118 13.118-5.873 13.118-13.118c.001-7.245-5.873-13.118-13.118-13.118z" fill="#e5e4df"/><path d="m511.599 320.975h-7.708c-8.33 0-13.528-6.753-13.528-15.083 0-8.33 5.198-15.083 13.528-15.083h7.708zm-499.252-2.07h8.743c8.33 0 13.528-6.753 13.528-15.083 0-8.33-5.198-15.083-13.528-15.083h-5.912c-3.184 6.178-2.831 30.166-2.831 30.166z" fill="#ffd469"/><path d="m206.815 214.949v19.458c0 5.696-7.858 9.048-13.649 5.832-4.044-2.246-8.147-4.958-11.014-7.909l-19.652-.02c-5.154-.008-8.288-5.68-5.553-10.048l19.673-32.88 8.37 25.334c2.4-1.979 5.201-3.84 7.985-5.487 5.756-3.408 13.84-.064 13.84 5.72zm223.118 17.742c4.343-.013 7.173-4.568 5.26-8.467l-27.438-55.939c-1.687-3.439-5.183-5.618-9.013-5.618h-13.08v70.154z" fill="#2b3b47"/></svg>